<svg xmlns="http://www.w3.org/2000/svg" viewBox="0 0 800 600" role="img" aria-labelledby="title desc"><title id="title">Pomada efeito brilho</title><desc id="desc">Ilustração provisória de um pote de pomada com efeito brilho.</desc><defs><linearGradient id="bg" x1="0" x2="1" y1="1" y2="0"><stop stop-color="#08090a"/><stop offset="1" stop-color="#26282d"/></linearGradient><linearGradient id="jar" x1="0" x2="1"><stop stop-color="#17191d"/><stop offset=".5" stop-color="#383b40"/><stop offset="1" stop-color="#101114"/></linearGradient></defs><rect width="800" height="600" fill="url(#bg)"/><path d="M90 110l18 34 37 6-27 27 7 38-35-18-34 18 6-38-27-27 38-6z" fill="#c6ff3d" opacity=".22"/><ellipse cx="400" cy="480" rx="190" ry="38" fill="#000" opacity=".5"/><path d="M258 220h284l-23 238c-3 29-28 51-57 51H338c-29 0-54-22-57-51z" fill="url(#jar)" stroke="#474a50" stroke-width="5"/><ellipse cx="400" cy="220" rx="142" ry="44" fill="#202328" stroke="#f6f6f2" stroke-width="4"/><ellipse cx="400" cy="215" rx="110" ry="26" fill="#090a0b"/><rect x="306" y="296" width="188" height="106" rx="18" fill="#f6f6f2"/><path d="M343 339h114M363 370h74" stroke="#0b0b0d" stroke-width="15" stroke-linecap="round"/><path d="M550 142l10 19 22 4-16 15 4 22-20-10-20 10 4-22-16-15 22-4z" fill="#c6ff3d"/><text x="400" y="548" fill="#c6ff3d" font-family="Arial,sans-serif" font-weight="700" font-size="25" text-anchor="middle" letter-spacing="5">BRILHO</text></svg>