<svg xmlns="http://www.w3.org/2000/svg" viewBox="0 0 800 600" role="img" aria-labelledby="title desc"><title id="title">Pente de bolso</title><desc id="desc">Ilustração provisória de um pente preto.</desc><defs><linearGradient id="bg" x1="0" x2="1" y1="0" y2="1"><stop stop-color="#08090a"/><stop offset=".52" stop-color="#292c31"/><stop offset="1" stop-color="#0b0b0d"/></linearGradient></defs><rect width="800" height="600" fill="url(#bg)"/><circle cx="650" cy="480" r="180" fill="#c6ff3d" opacity=".07"/><g transform="rotate(-14 400 300)"><rect x="165" y="214" width="470" height="112" rx="32" fill="#c6ff3d"/><rect x="200" y="244" width="400" height="40" rx="20" fill="#0b0b0d"/><g fill="#0b0b0d"><path d="M210 304h18v152h-18z"/><path d="M246 304h18v142h-18z"/><path d="M282 304h18v152h-18z"/><path d="M318 304h18v142h-18z"/><path d="M354 304h18v152h-18z"/><path d="M390 304h18v142h-18z"/><path d="M426 304h18v152h-18z"/><path d="M462 304h18v142h-18z"/><path d="M498 304h18v152h-18z"/><path d="M534 304h18v142h-18z"/><path d="M570 304h18v152h-18z"/></g></g><text x="400" y="538" fill="#f6f6f2" font-family="Arial,sans-serif" font-weight="700" font-size="24" text-anchor="middle" letter-spacing="5">ACESSÓRIO</text></svg>