<svg xmlns="http://www.w3.org/2000/svg" viewBox="0 0 800 600" role="img" aria-labelledby="title desc"><title id="title">Óleo para barba</title><desc id="desc">Ilustração provisória de um frasco conta-gotas de óleo para barba.</desc><defs><linearGradient id="bg" x1=".2" x2=".8" y1="0" y2="1"><stop stop-color="#22252a"/><stop offset="1" stop-color="#070809"/></linearGradient><linearGradient id="glass" x1="0" x2="1"><stop stop-color="#181a1e"/><stop offset=".5" stop-color="#36393f"/><stop offset="1" stop-color="#111216"/></linearGradient></defs><rect width="800" height="600" fill="url(#bg)"/><path d="M655 90c0 32-39 70-39 70s-39-38-39-70a39 39 0 1178 0z" fill="#c6ff3d" opacity=".14"/><ellipse cx="400" cy="500" rx="115" ry="27" fill="#000" opacity=".5"/><rect x="342" y="76" width="116" height="98" rx="24" fill="#111316" stroke="#c6ff3d" stroke-width="4"/><path d="M372 57h56v40h-56z" fill="#303339"/><rect x="311" y="162" width="178" height="329" rx="45" fill="url(#glass)" stroke="#4b4e55" stroke-width="5"/><rect x="332" y="275" width="136" height="118" rx="18" fill="#f6f6f2"/><path d="M400 305c0 0-32 31-32 55a32 32 0 0064 0c0-24-32-55-32-55z" fill="#0b0b0d"/><text x="400" y="438" fill="#c6ff3d" font-family="Arial,sans-serif" font-weight="700" font-size="20" text-anchor="middle" letter-spacing="4">ÓLEO</text></svg>